<?xml version="1.0" encoding="utf-8" standalone="no"?>
<!DOCTYPE svg PUBLIC "-//W3C//DTD SVG 1.1//EN"
  "http://www.w3.org/Graphics/SVG/1.1/DTD/svg11.dtd">
<!-- Created with matplotlib (https://matplotlib.org/) -->
<svg height="207.955467pt" version="1.1" viewBox="0 0 569.0625 207.955467" width="569.0625pt" xmlns="http://www.w3.org/2000/svg" xmlns:xlink="http://www.w3.org/1999/xlink">
 <defs>
  <style type="text/css">
*{stroke-linecap:butt;stroke-linejoin:round;}
  </style>
 </defs>
 <g id="figure_1">
  <g id="patch_1">
   <path d="M 0 207.955467 
L 569.0625 207.955467 
L 569.0625 0 
L 0 0 
z
" style="fill:none;"/>
  </g>
  <g id="axes_1">
   <g id="patch_2">
    <path d="M 26.925 170.399217 
L 458.325 170.399217 
L 458.325 7.213469 
L 26.925 7.213469 
z
" style="fill:#ffffff;"/>
   </g>
   <g id="patch_3">
    <path clip-path="url(#pbe8ac8a528)" d="M 46.534091 170.399217 
L 54.537801 170.399217 
L 54.537801 170.399217 
L 46.534091 170.399217 
z
" style="fill:#0000ff;opacity:0.4;"/>
   </g>
   <g id="patch_4">
    <path clip-path="url(#pbe8ac8a528)" d="M 54.537801 170.399217 
L 62.541512 170.399217 
L 62.541512 170.399217 
L 54.537801 170.399217 
z
" style="fill:#0000ff;opacity:0.4;"/>
   </g>
   <g id="patch_5">
    <path clip-path="url(#pbe8ac8a528)" d="M 62.541512 170.399217 
L 70.545223 170.399217 
L 70.545223 170.399217 
L 62.541512 170.399217 
z
" style="fill:#0000ff;opacity:0.4;"/>
   </g>
   <g id="patch_6">
    <path clip-path="url(#pbe8ac8a528)" d="M 70.545223 170.399217 
L 78.548933 170.399217 
L 78.548933 170.399217 
L 70.545223 170.399217 
z
" style="fill:#0000ff;opacity:0.4;"/>
   </g>
   <g id="patch_7">
    <path clip-path="url(#pbe8ac8a528)" d="M 78.548933 170.399217 
L 86.552644 170.399217 
L 86.552644 170.399217 
L 78.548933 170.399217 
z
" style="fill:#0000ff;opacity:0.4;"/>
   </g>
   <g id="patch_8">
    <path clip-path="url(#pbe8ac8a528)" d="M 86.552644 170.399217 
L 94.556354 170.399217 
L 94.556354 170.399217 
L 86.552644 170.399217 
z
" style="fill:#0000ff;opacity:0.4;"/>
   </g>
   <g id="patch_9">
    <path clip-path="url(#pbe8ac8a528)" d="M 94.556354 170.399217 
L 102.560065 170.399217 
L 102.560065 170.399217 
L 94.556354 170.399217 
z
" style="fill:#0000ff;opacity:0.4;"/>
   </g>
   <g id="patch_10">
    <path clip-path="url(#pbe8ac8a528)" d="M 102.560065 170.399217 
L 110.563776 170.399217 
L 110.563776 170.399217 
L 102.560065 170.399217 
z
" style="fill:#0000ff;opacity:0.4;"/>
   </g>
   <g id="patch_11">
    <path clip-path="url(#pbe8ac8a528)" d="M 110.563776 170.399217 
L 118.567486 170.399217 
L 118.567486 170.399217 
L 110.563776 170.399217 
z
" style="fill:#0000ff;opacity:0.4;"/>
   </g>
   <g id="patch_12">
    <path clip-path="url(#pbe8ac8a528)" d="M 118.567486 170.399217 
L 126.571197 170.399217 
L 126.571197 170.399217 
L 118.567486 170.399217 
z
" style="fill:#0000ff;opacity:0.4;"/>
   </g>
   <g id="patch_13">
    <path clip-path="url(#pbe8ac8a528)" d="M 126.571197 170.399217 
L 134.574907 170.399217 
L 134.574907 170.399217 
L 126.571197 170.399217 
z
" style="fill:#0000ff;opacity:0.4;"/>
   </g>
   <g id="patch_14">
    <path clip-path="url(#pbe8ac8a528)" d="M 134.574907 170.399217 
L 142.578618 170.399217 
L 142.578618 170.399217 
L 134.574907 170.399217 
z
" style="fill:#0000ff;opacity:0.4;"/>
   </g>
   <g id="patch_15">
    <path clip-path="url(#pbe8ac8a528)" d="M 142.578618 170.399217 
L 150.582328 170.399217 
L 150.582328 170.399217 
L 142.578618 170.399217 
z
" style="fill:#0000ff;opacity:0.4;"/>
   </g>
   <g id="patch_16">
    <path clip-path="url(#pbe8ac8a528)" d="M 150.582328 170.399217 
L 158.586039 170.399217 
L 158.586039 170.399217 
L 150.582328 170.399217 
z
" style="fill:#0000ff;opacity:0.4;"/>
   </g>
   <g id="patch_17">
    <path clip-path="url(#pbe8ac8a528)" d="M 158.586039 170.399217 
L 166.58975 170.399217 
L 166.58975 170.399217 
L 158.586039 170.399217 
z
" style="fill:#0000ff;opacity:0.4;"/>
   </g>
   <g id="patch_18">
    <path clip-path="url(#pbe8ac8a528)" d="M 166.58975 170.399217 
L 174.59346 170.399217 
L 174.59346 170.399217 
L 166.58975 170.399217 
z
" style="fill:#0000ff;opacity:0.4;"/>
   </g>
   <g id="patch_19">
    <path clip-path="url(#pbe8ac8a528)" d="M 174.59346 170.399217 
L 182.597171 170.399217 
L 182.597171 170.399217 
L 174.59346 170.399217 
z
" style="fill:#0000ff;opacity:0.4;"/>
   </g>
   <g id="patch_20">
    <path clip-path="url(#pbe8ac8a528)" d="M 182.597171 170.399217 
L 190.600881 170.399217 
L 190.600881 170.399217 
L 182.597171 170.399217 
z
" style="fill:#0000ff;opacity:0.4;"/>
   </g>
   <g id="patch_21">
    <path clip-path="url(#pbe8ac8a528)" d="M 190.600881 170.399217 
L 198.604592 170.399217 
L 198.604592 170.399217 
L 190.600881 170.399217 
z
" style="fill:#0000ff;opacity:0.4;"/>
   </g>
   <g id="patch_22">
    <path clip-path="url(#pbe8ac8a528)" d="M 198.604592 170.399217 
L 206.608302 170.399217 
L 206.608302 170.399217 
L 198.604592 170.399217 
z
" style="fill:#0000ff;opacity:0.4;"/>
   </g>
   <g id="patch_23">
    <path clip-path="url(#pbe8ac8a528)" d="M 206.608302 170.399217 
L 214.612013 170.399217 
L 214.612013 170.399217 
L 206.608302 170.399217 
z
" style="fill:#0000ff;opacity:0.4;"/>
   </g>
   <g id="patch_24">
    <path clip-path="url(#pbe8ac8a528)" d="M 214.612013 170.399217 
L 222.615724 170.399217 
L 222.615724 170.399217 
L 214.612013 170.399217 
z
" style="fill:#0000ff;opacity:0.4;"/>
   </g>
   <g id="patch_25">
    <path clip-path="url(#pbe8ac8a528)" d="M 222.615724 170.399217 
L 230.619434 170.399217 
L 230.619434 170.399217 
L 222.615724 170.399217 
z
" style="fill:#0000ff;opacity:0.4;"/>
   </g>
   <g id="patch_26">
    <path clip-path="url(#pbe8ac8a528)" d="M 230.619434 170.399217 
L 238.623145 170.399217 
L 238.623145 170.399217 
L 230.619434 170.399217 
z
" style="fill:#0000ff;opacity:0.4;"/>
   </g>
   <g id="patch_27">
    <path clip-path="url(#pbe8ac8a528)" d="M 238.623145 170.399217 
L 246.626855 170.399217 
L 246.626855 170.399217 
L 238.623145 170.399217 
z
" style="fill:#0000ff;opacity:0.4;"/>
   </g>
   <g id="patch_28">
    <path clip-path="url(#pbe8ac8a528)" d="M 246.626855 170.399217 
L 254.630566 170.399217 
L 254.630566 170.399217 
L 246.626855 170.399217 
z
" style="fill:#0000ff;opacity:0.4;"/>
   </g>
   <g id="patch_29">
    <path clip-path="url(#pbe8ac8a528)" d="M 254.630566 170.399217 
L 262.634276 170.399217 
L 262.634276 170.399217 
L 254.630566 170.399217 
z
" style="fill:#0000ff;opacity:0.4;"/>
   </g>
   <g id="patch_30">
    <path clip-path="url(#pbe8ac8a528)" d="M 262.634276 170.399217 
L 270.637987 170.399217 
L 270.637987 170.399217 
L 262.634276 170.399217 
z
" style="fill:#0000ff;opacity:0.4;"/>
   </g>
   <g id="patch_31">
    <path clip-path="url(#pbe8ac8a528)" d="M 270.637987 170.399217 
L 278.641698 170.399217 
L 278.641698 170.399217 
L 270.637987 170.399217 
z
" style="fill:#0000ff;opacity:0.4;"/>
   </g>
   <g id="patch_32">
    <path clip-path="url(#pbe8ac8a528)" d="M 278.641698 170.399217 
L 286.645408 170.399217 
L 286.645408 170.399217 
L 278.641698 170.399217 
z
" style="fill:#0000ff;opacity:0.4;"/>
   </g>
   <g id="patch_33">
    <path clip-path="url(#pbe8ac8a528)" d="M 286.645408 170.399217 
L 294.649119 170.399217 
L 294.649119 170.399217 
L 286.645408 170.399217 
z
" style="fill:#0000ff;opacity:0.4;"/>
   </g>
   <g id="patch_34">
    <path clip-path="url(#pbe8ac8a528)" d="M 294.649119 170.399217 
L 302.652829 170.399217 
L 302.652829 170.399217 
L 294.649119 170.399217 
z
" style="fill:#0000ff;opacity:0.4;"/>
   </g>
   <g id="patch_35">
    <path clip-path="url(#pbe8ac8a528)" d="M 302.652829 170.399217 
L 310.65654 170.399217 
L 310.65654 170.399217 
L 302.652829 170.399217 
z
" style="fill:#0000ff;opacity:0.4;"/>
   </g>
   <g id="patch_36">
    <path clip-path="url(#pbe8ac8a528)" d="M 310.65654 170.399217 
L 318.66025 170.399217 
L 318.66025 170.399217 
L 310.65654 170.399217 
z
" style="fill:#0000ff;opacity:0.4;"/>
   </g>
   <g id="patch_37">
    <path clip-path="url(#pbe8ac8a528)" d="M 318.66025 170.399217 
L 326.663961 170.399217 
L 326.663961 170.399217 
L 318.66025 170.399217 
z
" style="fill:#0000ff;opacity:0.4;"/>
   </g>
   <g id="patch_38">
    <path clip-path="url(#pbe8ac8a528)" d="M 326.663961 170.399217 
L 334.667672 170.399217 
L 334.667672 170.399217 
L 326.663961 170.399217 
z
" style="fill:#0000ff;opacity:0.4;"/>
   </g>
   <g id="patch_39">
    <path clip-path="url(#pbe8ac8a528)" d="M 334.667672 170.399217 
L 342.671382 170.399217 
L 342.671382 170.399217 
L 334.667672 170.399217 
z
" style="fill:#0000ff;opacity:0.4;"/>
   </g>
   <g id="patch_40">
    <path clip-path="url(#pbe8ac8a528)" d="M 342.671382 170.399217 
L 350.675093 170.399217 
L 350.675093 170.399217 
L 342.671382 170.399217 
z
" style="fill:#0000ff;opacity:0.4;"/>
   </g>
   <g id="patch_41">
    <path clip-path="url(#pbe8ac8a528)" d="M 350.675093 170.399217 
L 358.678803 170.399217 
L 358.678803 170.399217 
L 350.675093 170.399217 
z
" style="fill:#0000ff;opacity:0.4;"/>
   </g>
   <g id="patch_42">
    <path clip-path="url(#pbe8ac8a528)" d="M 358.678803 170.399217 
L 366.682514 170.399217 
L 366.682514 158.444218 
L 358.678803 158.444218 
z
" style="fill:#0000ff;opacity:0.4;"/>
   </g>
   <g id="patch_43">
    <path clip-path="url(#pbe8ac8a528)" d="M 366.682514 170.399217 
L 374.686224 170.399217 
L 374.686224 142.504218 
L 366.682514 142.504218 
z
" style="fill:#0000ff;opacity:0.4;"/>
   </g>
   <g id="patch_44">
    <path clip-path="url(#pbe8ac8a528)" d="M 374.686224 170.399217 
L 382.689935 170.399217 
L 382.689935 126.564218 
L 374.686224 126.564218 
z
" style="fill:#0000ff;opacity:0.4;"/>
   </g>
   <g id="patch_45">
    <path clip-path="url(#pbe8ac8a528)" d="M 382.689935 170.399217 
L 390.693646 170.399217 
L 390.693646 82.729218 
L 382.689935 82.729218 
z
" style="fill:#0000ff;opacity:0.4;"/>
   </g>
   <g id="patch_46">
    <path clip-path="url(#pbe8ac8a528)" d="M 390.693646 170.399217 
L 398.697356 170.399217 
L 398.697356 14.984219 
L 390.693646 14.984219 
z
" style="fill:#0000ff;opacity:0.4;"/>
   </g>
   <g id="patch_47">
    <path clip-path="url(#pbe8ac8a528)" d="M 398.697356 170.399217 
L 406.701067 170.399217 
L 406.701067 102.654218 
L 398.697356 102.654218 
z
" style="fill:#0000ff;opacity:0.4;"/>
   </g>
   <g id="patch_48">
    <path clip-path="url(#pbe8ac8a528)" d="M 406.701067 170.399217 
L 414.704777 170.399217 
L 414.704777 166.414217 
L 406.701067 166.414217 
z
" style="fill:#0000ff;opacity:0.4;"/>
   </g>
   <g id="patch_49">
    <path clip-path="url(#pbe8ac8a528)" d="M 414.704777 170.399217 
L 422.708488 170.399217 
L 422.708488 170.399217 
L 414.704777 170.399217 
z
" style="fill:#0000ff;opacity:0.4;"/>
   </g>
   <g id="patch_50">
    <path clip-path="url(#pbe8ac8a528)" d="M 422.708488 170.399217 
L 430.712199 170.399217 
L 430.712199 170.399217 
L 422.708488 170.399217 
z
" style="fill:#0000ff;opacity:0.4;"/>
   </g>
   <g id="patch_51">
    <path clip-path="url(#pbe8ac8a528)" d="M 430.712199 170.399217 
L 438.715909 170.399217 
L 438.715909 170.399217 
L 430.712199 170.399217 
z
" style="fill:#0000ff;opacity:0.4;"/>
   </g>
   <g id="patch_52">
    <path clip-path="url(#pbe8ac8a528)" d="M 46.534091 170.399217 
L 54.537801 170.399217 
L 54.537801 170.399217 
L 46.534091 170.399217 
z
" style="fill:#008000;opacity:0.4;"/>
   </g>
   <g id="patch_53">
    <path clip-path="url(#pbe8ac8a528)" d="M 54.537801 170.399217 
L 62.541512 170.399217 
L 62.541512 170.399217 
L 54.537801 170.399217 
z
" style="fill:#008000;opacity:0.4;"/>
   </g>
   <g id="patch_54">
    <path clip-path="url(#pbe8ac8a528)" d="M 62.541512 170.399217 
L 70.545223 170.399217 
L 70.545223 170.399217 
L 62.541512 170.399217 
z
" style="fill:#008000;opacity:0.4;"/>
   </g>
   <g id="patch_55">
    <path clip-path="url(#pbe8ac8a528)" d="M 70.545223 170.399217 
L 78.548933 170.399217 
L 78.548933 170.399217 
L 70.545223 170.399217 
z
" style="fill:#008000;opacity:0.4;"/>
   </g>
   <g id="patch_56">
    <path clip-path="url(#pbe8ac8a528)" d="M 78.548933 170.399217 
L 86.552644 170.399217 
L 86.552644 170.399217 
L 78.548933 170.399217 
z
" style="fill:#008000;opacity:0.4;"/>
   </g>
   <g id="patch_57">
    <path clip-path="url(#pbe8ac8a528)" d="M 86.552644 170.399217 
L 94.556354 170.399217 
L 94.556354 170.399217 
L 86.552644 170.399217 
z
" style="fill:#008000;opacity:0.4;"/>
   </g>
   <g id="patch_58">
    <path clip-path="url(#pbe8ac8a528)" d="M 94.556354 170.399217 
L 102.560065 170.399217 
L 102.560065 170.399217 
L 94.556354 170.399217 
z
" style="fill:#008000;opacity:0.4;"/>
   </g>
   <g id="patch_59">
    <path clip-path="url(#pbe8ac8a528)" d="M 102.560065 170.399217 
L 110.563776 170.399217 
L 110.563776 170.399217 
L 102.560065 170.399217 
z
" style="fill:#008000;opacity:0.4;"/>
   </g>
   <g id="patch_60">
    <path clip-path="url(#pbe8ac8a528)" d="M 110.563776 170.399217 
L 118.567486 170.399217 
L 118.567486 170.399217 
L 110.563776 170.399217 
z
" style="fill:#008000;opacity:0.4;"/>
   </g>
   <g id="patch_61">
    <path clip-path="url(#pbe8ac8a528)" d="M 118.567486 170.399217 
L 126.571197 170.399217 
L 126.571197 170.399217 
L 118.567486 170.399217 
z
" style="fill:#008000;opacity:0.4;"/>
   </g>
   <g id="patch_62">
    <path clip-path="url(#pbe8ac8a528)" d="M 126.571197 170.399217 
L 134.574907 170.399217 
L 134.574907 170.399217 
L 126.571197 170.399217 
z
" style="fill:#008000;opacity:0.4;"/>
   </g>
   <g id="patch_63">
    <path clip-path="url(#pbe8ac8a528)" d="M 134.574907 170.399217 
L 142.578618 170.399217 
L 142.578618 170.399217 
L 134.574907 170.399217 
z
" style="fill:#008000;opacity:0.4;"/>
   </g>
   <g id="patch_64">
    <path clip-path="url(#pbe8ac8a528)" d="M 142.578618 170.399217 
L 150.582328 170.399217 
L 150.582328 170.399217 
L 142.578618 170.399217 
z
" style="fill:#008000;opacity:0.4;"/>
   </g>
   <g id="patch_65">
    <path clip-path="url(#pbe8ac8a528)" d="M 150.582328 170.399217 
L 158.586039 170.399217 
L 158.586039 170.399217 
L 150.582328 170.399217 
z
" style="fill:#008000;opacity:0.4;"/>
   </g>
   <g id="patch_66">
    <path clip-path="url(#pbe8ac8a528)" d="M 158.586039 170.399217 
L 166.58975 170.399217 
L 166.58975 170.399217 
L 158.586039 170.399217 
z
" style="fill:#008000;opacity:0.4;"/>
   </g>
   <g id="patch_67">
    <path clip-path="url(#pbe8ac8a528)" d="M 166.58975 170.399217 
L 174.59346 170.399217 
L 174.59346 170.399217 
L 166.58975 170.399217 
z
" style="fill:#008000;opacity:0.4;"/>
   </g>
   <g id="patch_68">
    <path clip-path="url(#pbe8ac8a528)" d="M 174.59346 170.399217 
L 182.597171 170.399217 
L 182.597171 170.399217 
L 174.59346 170.399217 
z
" style="fill:#008000;opacity:0.4;"/>
   </g>
   <g id="patch_69">
    <path clip-path="url(#pbe8ac8a528)" d="M 182.597171 170.399217 
L 190.600881 170.399217 
L 190.600881 170.399217 
L 182.597171 170.399217 
z
" style="fill:#008000;opacity:0.4;"/>
   </g>
   <g id="patch_70">
    <path clip-path="url(#pbe8ac8a528)" d="M 190.600881 170.399217 
L 198.604592 170.399217 
L 198.604592 170.399217 
L 190.600881 170.399217 
z
" style="fill:#008000;opacity:0.4;"/>
   </g>
   <g id="patch_71">
    <path clip-path="url(#pbe8ac8a528)" d="M 198.604592 170.399217 
L 206.608302 170.399217 
L 206.608302 170.399217 
L 198.604592 170.399217 
z
" style="fill:#008000;opacity:0.4;"/>
   </g>
   <g id="patch_72">
    <path clip-path="url(#pbe8ac8a528)" d="M 206.608302 170.399217 
L 214.612013 170.399217 
L 214.612013 170.399217 
L 206.608302 170.399217 
z
" style="fill:#008000;opacity:0.4;"/>
   </g>
   <g id="patch_73">
    <path clip-path="url(#pbe8ac8a528)" d="M 214.612013 170.399217 
L 222.615724 170.399217 
L 222.615724 170.399217 
L 214.612013 170.399217 
z
" style="fill:#008000;opacity:0.4;"/>
   </g>
   <g id="patch_74">
    <path clip-path="url(#pbe8ac8a528)" d="M 222.615724 170.399217 
L 230.619434 170.399217 
L 230.619434 170.399217 
L 222.615724 170.399217 
z
" style="fill:#008000;opacity:0.4;"/>
   </g>
   <g id="patch_75">
    <path clip-path="url(#pbe8ac8a528)" d="M 230.619434 170.399217 
L 238.623145 170.399217 
L 238.623145 170.399217 
L 230.619434 170.399217 
z
" style="fill:#008000;opacity:0.4;"/>
   </g>
   <g id="patch_76">
    <path clip-path="url(#pbe8ac8a528)" d="M 238.623145 170.399217 
L 246.626855 170.399217 
L 246.626855 170.399217 
L 238.623145 170.399217 
z
" style="fill:#008000;opacity:0.4;"/>
   </g>
   <g id="patch_77">
    <path clip-path="url(#pbe8ac8a528)" d="M 246.626855 170.399217 
L 254.630566 170.399217 
L 254.630566 170.399217 
L 246.626855 170.399217 
z
" style="fill:#008000;opacity:0.4;"/>
   </g>
   <g id="patch_78">
    <path clip-path="url(#pbe8ac8a528)" d="M 254.630566 170.399217 
L 262.634276 170.399217 
L 262.634276 170.399217 
L 254.630566 170.399217 
z
" style="fill:#008000;opacity:0.4;"/>
   </g>
   <g id="patch_79">
    <path clip-path="url(#pbe8ac8a528)" d="M 262.634276 170.399217 
L 270.637987 170.399217 
L 270.637987 170.399217 
L 262.634276 170.399217 
z
" style="fill:#008000;opacity:0.4;"/>
   </g>
   <g id="patch_80">
    <path clip-path="url(#pbe8ac8a528)" d="M 270.637987 170.399217 
L 278.641698 170.399217 
L 278.641698 170.399217 
L 270.637987 170.399217 
z
" style="fill:#008000;opacity:0.4;"/>
   </g>
   <g id="patch_81">
    <path clip-path="url(#pbe8ac8a528)" d="M 278.641698 170.399217 
L 286.645408 170.399217 
L 286.645408 170.399217 
L 278.641698 170.399217 
z
" style="fill:#008000;opacity:0.4;"/>
   </g>
   <g id="patch_82">
    <path clip-path="url(#pbe8ac8a528)" d="M 286.645408 170.399217 
L 294.649119 170.399217 
L 294.649119 170.399217 
L 286.645408 170.399217 
z
" style="fill:#008000;opacity:0.4;"/>
   </g>
   <g id="patch_83">
    <path clip-path="url(#pbe8ac8a528)" d="M 294.649119 170.399217 
L 302.652829 170.399217 
L 302.652829 170.399217 
L 294.649119 170.399217 
z
" style="fill:#008000;opacity:0.4;"/>
   </g>
   <g id="patch_84">
    <path clip-path="url(#pbe8ac8a528)" d="M 302.652829 170.399217 
L 310.65654 170.399217 
L 310.65654 170.399217 
L 302.652829 170.399217 
z
" style="fill:#008000;opacity:0.4;"/>
   </g>
   <g id="patch_85">
    <path clip-path="url(#pbe8ac8a528)" d="M 310.65654 170.399217 
L 318.66025 170.399217 
L 318.66025 162.429218 
L 310.65654 162.429218 
z
" style="fill:#008000;opacity:0.4;"/>
   </g>
   <g id="patch_86">
    <path clip-path="url(#pbe8ac8a528)" d="M 318.66025 170.399217 
L 326.663961 170.399217 
L 326.663961 170.399217 
L 318.66025 170.399217 
z
" style="fill:#008000;opacity:0.4;"/>
   </g>
   <g id="patch_87">
    <path clip-path="url(#pbe8ac8a528)" d="M 326.663961 170.399217 
L 334.667672 170.399217 
L 334.667672 162.429218 
L 326.663961 162.429218 
z
" style="fill:#008000;opacity:0.4;"/>
   </g>
   <g id="patch_88">
    <path clip-path="url(#pbe8ac8a528)" d="M 334.667672 170.399217 
L 342.671382 170.399217 
L 342.671382 146.489218 
L 334.667672 146.489218 
z
" style="fill:#008000;opacity:0.4;"/>
   </g>
   <g id="patch_89">
    <path clip-path="url(#pbe8ac8a528)" d="M 342.671382 170.399217 
L 350.675093 170.399217 
L 350.675093 130.549218 
L 342.671382 130.549218 
z
" style="fill:#008000;opacity:0.4;"/>
   </g>
   <g id="patch_90">
    <path clip-path="url(#pbe8ac8a528)" d="M 350.675093 170.399217 
L 358.678803 170.399217 
L 358.678803 118.594218 
L 350.675093 118.594218 
z
" style="fill:#008000;opacity:0.4;"/>
   </g>
   <g id="patch_91">
    <path clip-path="url(#pbe8ac8a528)" d="M 358.678803 170.399217 
L 366.682514 170.399217 
L 366.682514 130.549218 
L 358.678803 130.549218 
z
" style="fill:#008000;opacity:0.4;"/>
   </g>
   <g id="patch_92">
    <path clip-path="url(#pbe8ac8a528)" d="M 366.682514 170.399217 
L 374.686224 170.399217 
L 374.686224 82.729218 
L 366.682514 82.729218 
z
" style="fill:#008000;opacity:0.4;"/>
   </g>
   <g id="patch_93">
    <path clip-path="url(#pbe8ac8a528)" d="M 374.686224 170.399217 
L 382.689935 170.399217 
L 382.689935 82.729218 
L 374.686224 82.729218 
z
" style="fill:#008000;opacity:0.4;"/>
   </g>
   <g id="patch_94">
    <path clip-path="url(#pbe8ac8a528)" d="M 382.689935 170.399217 
L 390.693646 170.399217 
L 390.693646 142.504218 
L 382.689935 142.504218 
z
" style="fill:#008000;opacity:0.4;"/>
   </g>
   <g id="patch_95">
    <path clip-path="url(#pbe8ac8a528)" d="M 390.693646 170.399217 
L 398.697356 170.399217 
L 398.697356 150.474218 
L 390.693646 150.474218 
z
" style="fill:#008000;opacity:0.4;"/>
   </g>
   <g id="patch_96">
    <path clip-path="url(#pbe8ac8a528)" d="M 398.697356 170.399217 
L 406.701067 170.399217 
L 406.701067 166.414217 
L 398.697356 166.414217 
z
" style="fill:#008000;opacity:0.4;"/>
   </g>
   <g id="patch_97">
    <path clip-path="url(#pbe8ac8a528)" d="M 406.701067 170.399217 
L 414.704777 170.399217 
L 414.704777 170.399217 
L 406.701067 170.399217 
z
" style="fill:#008000;opacity:0.4;"/>
   </g>
   <g id="patch_98">
    <path clip-path="url(#pbe8ac8a528)" d="M 414.704777 170.399217 
L 422.708488 170.399217 
L 422.708488 170.399217 
L 414.704777 170.399217 
z
" style="fill:#008000;opacity:0.4;"/>
   </g>
   <g id="patch_99">
    <path clip-path="url(#pbe8ac8a528)" d="M 422.708488 170.399217 
L 430.712199 170.399217 
L 430.712199 170.399217 
L 422.708488 170.399217 
z
" style="fill:#008000;opacity:0.4;"/>
   </g>
   <g id="patch_100">
    <path clip-path="url(#pbe8ac8a528)" d="M 430.712199 170.399217 
L 438.715909 170.399217 
L 438.715909 170.399217 
L 430.712199 170.399217 
z
" style="fill:#008000;opacity:0.4;"/>
   </g>
   <g id="patch_101">
    <path clip-path="url(#pbe8ac8a528)" d="M 46.534091 170.399217 
L 54.537801 170.399217 
L 54.537801 170.399217 
L 46.534091 170.399217 
z
" style="fill:#800080;opacity:0.4;"/>
   </g>
   <g id="patch_102">
    <path clip-path="url(#pbe8ac8a528)" d="M 54.537801 170.399217 
L 62.541512 170.399217 
L 62.541512 170.399217 
L 54.537801 170.399217 
z
" style="fill:#800080;opacity:0.4;"/>
   </g>
   <g id="patch_103">
    <path clip-path="url(#pbe8ac8a528)" d="M 62.541512 170.399217 
L 70.545223 170.399217 
L 70.545223 170.399217 
L 62.541512 170.399217 
z
" style="fill:#800080;opacity:0.4;"/>
   </g>
   <g id="patch_104">
    <path clip-path="url(#pbe8ac8a528)" d="M 70.545223 170.399217 
L 78.548933 170.399217 
L 78.548933 170.399217 
L 70.545223 170.399217 
z
" style="fill:#800080;opacity:0.4;"/>
   </g>
   <g id="patch_105">
    <path clip-path="url(#pbe8ac8a528)" d="M 78.548933 170.399217 
L 86.552644 170.399217 
L 86.552644 170.399217 
L 78.548933 170.399217 
z
" style="fill:#800080;opacity:0.4;"/>
   </g>
   <g id="patch_106">
    <path clip-path="url(#pbe8ac8a528)" d="M 86.552644 170.399217 
L 94.556354 170.399217 
L 94.556354 170.399217 
L 86.552644 170.399217 
z
" style="fill:#800080;opacity:0.4;"/>
   </g>
   <g id="patch_107">
    <path clip-path="url(#pbe8ac8a528)" d="M 94.556354 170.399217 
L 102.560065 170.399217 
L 102.560065 170.399217 
L 94.556354 170.399217 
z
" style="fill:#800080;opacity:0.4;"/>
   </g>
   <g id="patch_108">
    <path clip-path="url(#pbe8ac8a528)" d="M 102.560065 170.399217 
L 110.563776 170.399217 
L 110.563776 170.399217 
L 102.560065 170.399217 
z
" style="fill:#800080;opacity:0.4;"/>
   </g>
   <g id="patch_109">
    <path clip-path="url(#pbe8ac8a528)" d="M 110.563776 170.399217 
L 118.567486 170.399217 
L 118.567486 170.399217 
L 110.563776 170.399217 
z
" style="fill:#800080;opacity:0.4;"/>
   </g>
   <g id="patch_110">
    <path clip-path="url(#pbe8ac8a528)" d="M 118.567486 170.399217 
L 126.571197 170.399217 
L 126.571197 170.399217 
L 118.567486 170.399217 
z
" style="fill:#800080;opacity:0.4;"/>
   </g>
   <g id="patch_111">
    <path clip-path="url(#pbe8ac8a528)" d="M 126.571197 170.399217 
L 134.574907 170.399217 
L 134.574907 170.399217 
L 126.571197 170.399217 
z
" style="fill:#800080;opacity:0.4;"/>
   </g>
   <g id="patch_112">
    <path clip-path="url(#pbe8ac8a528)" d="M 134.574907 170.399217 
L 142.578618 170.399217 
L 142.578618 170.399217 
L 134.574907 170.399217 
z
" style="fill:#800080;opacity:0.4;"/>
   </g>
   <g id="patch_113">
    <path clip-path="url(#pbe8ac8a528)" d="M 142.578618 170.399217 
L 150.582328 170.399217 
L 150.582328 170.399217 
L 142.578618 170.399217 
z
" style="fill:#800080;opacity:0.4;"/>
   </g>
   <g id="patch_114">
    <path clip-path="url(#pbe8ac8a528)" d="M 150.582328 170.399217 
L 158.586039 170.399217 
L 158.586039 170.399217 
L 150.582328 170.399217 
z
" style="fill:#800080;opacity:0.4;"/>
   </g>
   <g id="patch_115">
    <path clip-path="url(#pbe8ac8a528)" d="M 158.586039 170.399217 
L 166.58975 170.399217 
L 166.58975 170.399217 
L 158.586039 170.399217 
z
" style="fill:#800080;opacity:0.4;"/>
   </g>
   <g id="patch_116">
    <path clip-path="url(#pbe8ac8a528)" d="M 166.58975 170.399217 
L 174.59346 170.399217 
L 174.59346 170.399217 
L 166.58975 170.399217 
z
" style="fill:#800080;opacity:0.4;"/>
   </g>
   <g id="patch_117">
    <path clip-path="url(#pbe8ac8a528)" d="M 174.59346 170.399217 
L 182.597171 170.399217 
L 182.597171 170.399217 
L 174.59346 170.399217 
z
" style="fill:#800080;opacity:0.4;"/>
   </g>
   <g id="patch_118">
    <path clip-path="url(#pbe8ac8a528)" d="M 182.597171 170.399217 
L 190.600881 170.399217 
L 190.600881 170.399217 
L 182.597171 170.399217 
z
" style="fill:#800080;opacity:0.4;"/>
   </g>
   <g id="patch_119">
    <path clip-path="url(#pbe8ac8a528)" d="M 190.600881 170.399217 
L 198.604592 170.399217 
L 198.604592 170.399217 
L 190.600881 170.399217 
z
" style="fill:#800080;opacity:0.4;"/>
   </g>
   <g id="patch_120">
    <path clip-path="url(#pbe8ac8a528)" d="M 198.604592 170.399217 
L 206.608302 170.399217 
L 206.608302 170.399217 
L 198.604592 170.399217 
z
" style="fill:#800080;opacity:0.4;"/>
   </g>
   <g id="patch_121">
    <path clip-path="url(#pbe8ac8a528)" d="M 206.608302 170.399217 
L 214.612013 170.399217 
L 214.612013 170.399217 
L 206.608302 170.399217 
z
" style="fill:#800080;opacity:0.4;"/>
   </g>
   <g id="patch_122">
    <path clip-path="url(#pbe8ac8a528)" d="M 214.612013 170.399217 
L 222.615724 170.399217 
L 222.615724 170.399217 
L 214.612013 170.399217 
z
" style="fill:#800080;opacity:0.4;"/>
   </g>
   <g id="patch_123">
    <path clip-path="url(#pbe8ac8a528)" d="M 222.615724 170.399217 
L 230.619434 170.399217 
L 230.619434 170.399217 
L 222.615724 170.399217 
z
" style="fill:#800080;opacity:0.4;"/>
   </g>
   <g id="patch_124">
    <path clip-path="url(#pbe8ac8a528)" d="M 230.619434 170.399217 
L 238.623145 170.399217 
L 238.623145 170.399217 
L 230.619434 170.399217 
z
" style="fill:#800080;opacity:0.4;"/>
   </g>
   <g id="patch_125">
    <path clip-path="url(#pbe8ac8a528)" d="M 238.623145 170.399217 
L 246.626855 170.399217 
L 246.626855 170.399217 
L 238.623145 170.399217 
z
" style="fill:#800080;opacity:0.4;"/>
   </g>
   <g id="patch_126">
    <path clip-path="url(#pbe8ac8a528)" d="M 246.626855 170.399217 
L 254.630566 170.399217 
L 254.630566 170.399217 
L 246.626855 170.399217 
z
" style="fill:#800080;opacity:0.4;"/>
   </g>
   <g id="patch_127">
    <path clip-path="url(#pbe8ac8a528)" d="M 254.630566 170.399217 
L 262.634276 170.399217 
L 262.634276 170.399217 
L 254.630566 170.399217 
z
" style="fill:#800080;opacity:0.4;"/>
   </g>
   <g id="patch_128">
    <path clip-path="url(#pbe8ac8a528)" d="M 262.634276 170.399217 
L 270.637987 170.399217 
L 270.637987 170.399217 
L 262.634276 170.399217 
z
" style="fill:#800080;opacity:0.4;"/>
   </g>
   <g id="patch_129">
    <path clip-path="url(#pbe8ac8a528)" d="M 270.637987 170.399217 
L 278.641698 170.399217 
L 278.641698 170.399217 
L 270.637987 170.399217 
z
" style="fill:#800080;opacity:0.4;"/>
   </g>
   <g id="patch_130">
    <path clip-path="url(#pbe8ac8a528)" d="M 278.641698 170.399217 
L 286.645408 170.399217 
L 286.645408 170.399217 
L 278.641698 170.399217 
z
" style="fill:#800080;opacity:0.4;"/>
   </g>
   <g id="patch_131">
    <path clip-path="url(#pbe8ac8a528)" d="M 286.645408 170.399217 
L 294.649119 170.399217 
L 294.649119 170.399217 
L 286.645408 170.399217 
z
" style="fill:#800080;opacity:0.4;"/>
   </g>
   <g id="patch_132">
    <path clip-path="url(#pbe8ac8a528)" d="M 294.649119 170.399217 
L 302.652829 170.399217 
L 302.652829 170.399217 
L 294.649119 170.399217 
z
" style="fill:#800080;opacity:0.4;"/>
   </g>
   <g id="patch_133">
    <path clip-path="url(#pbe8ac8a528)" d="M 302.652829 170.399217 
L 310.65654 170.399217 
L 310.65654 170.399217 
L 302.652829 170.399217 
z
" style="fill:#800080;opacity:0.4;"/>
   </g>
   <g id="patch_134">
    <path clip-path="url(#pbe8ac8a528)" d="M 310.65654 170.399217 
L 318.66025 170.399217 
L 318.66025 170.399217 
L 310.65654 170.399217 
z
" style="fill:#800080;opacity:0.4;"/>
   </g>
   <g id="patch_135">
    <path clip-path="url(#pbe8ac8a528)" d="M 318.66025 170.399217 
L 326.663961 170.399217 
L 326.663961 170.399217 
L 318.66025 170.399217 
z
" style="fill:#800080;opacity:0.4;"/>
   </g>
   <g id="patch_136">
    <path clip-path="url(#pbe8ac8a528)" d="M 326.663961 170.399217 
L 334.667672 170.399217 
L 334.667672 170.399217 
L 326.663961 170.399217 
z
" style="fill:#800080;opacity:0.4;"/>
   </g>
   <g id="patch_137">
    <path clip-path="url(#pbe8ac8a528)" d="M 334.667672 170.399217 
L 342.671382 170.399217 
L 342.671382 170.399217 
L 334.667672 170.399217 
z
" style="fill:#800080;opacity:0.4;"/>
   </g>
   <g id="patch_138">
    <path clip-path="url(#pbe8ac8a528)" d="M 342.671382 170.399217 
L 350.675093 170.399217 
L 350.675093 170.399217 
L 342.671382 170.399217 
z
" style="fill:#800080;opacity:0.4;"/>
   </g>
   <g id="patch_139">
    <path clip-path="url(#pbe8ac8a528)" d="M 350.675093 170.399217 
L 358.678803 170.399217 
L 358.678803 170.399217 
L 350.675093 170.399217 
z
" style="fill:#800080;opacity:0.4;"/>
   </g>
   <g id="patch_140">
    <path clip-path="url(#pbe8ac8a528)" d="M 358.678803 170.399217 
L 366.682514 170.399217 
L 366.682514 170.399217 
L 358.678803 170.399217 
z
" style="fill:#800080;opacity:0.4;"/>
   </g>
   <g id="patch_141">
    <path clip-path="url(#pbe8ac8a528)" d="M 366.682514 170.399217 
L 374.686224 170.399217 
L 374.686224 138.519218 
L 366.682514 138.519218 
z
" style="fill:#800080;opacity:0.4;"/>
   </g>
   <g id="patch_142">
    <path clip-path="url(#pbe8ac8a528)" d="M 374.686224 170.399217 
L 382.689935 170.399217 
L 382.689935 122.579218 
L 374.686224 122.579218 
z
" style="fill:#800080;opacity:0.4;"/>
   </g>
   <g id="patch_143">
    <path clip-path="url(#pbe8ac8a528)" d="M 382.689935 170.399217 
L 390.693646 170.399217 
L 390.693646 42.879218 
L 382.689935 42.879218 
z
" style="fill:#800080;opacity:0.4;"/>
   </g>
   <g id="patch_144">
    <path clip-path="url(#pbe8ac8a528)" d="M 390.693646 170.399217 
L 398.697356 170.399217 
L 398.697356 18.969219 
L 390.693646 18.969219 
z
" style="fill:#800080;opacity:0.4;"/>
   </g>
   <g id="patch_145">
    <path clip-path="url(#pbe8ac8a528)" d="M 398.697356 170.399217 
L 406.701067 170.399217 
L 406.701067 134.534218 
L 398.697356 134.534218 
z
" style="fill:#800080;opacity:0.4;"/>
   </g>
   <g id="patch_146">
    <path clip-path="url(#pbe8ac8a528)" d="M 406.701067 170.399217 
L 414.704777 170.399217 
L 414.704777 166.414217 
L 406.701067 166.414217 
z
" style="fill:#800080;opacity:0.4;"/>
   </g>
   <g id="patch_147">
    <path clip-path="url(#pbe8ac8a528)" d="M 414.704777 170.399217 
L 422.708488 170.399217 
L 422.708488 170.399217 
L 414.704777 170.399217 
z
" style="fill:#800080;opacity:0.4;"/>
   </g>
   <g id="patch_148">
    <path clip-path="url(#pbe8ac8a528)" d="M 422.708488 170.399217 
L 430.712199 170.399217 
L 430.712199 170.399217 
L 422.708488 170.399217 
z
" style="fill:#800080;opacity:0.4;"/>
   </g>
   <g id="patch_149">
    <path clip-path="url(#pbe8ac8a528)" d="M 430.712199 170.399217 
L 438.715909 170.399217 
L 438.715909 170.399217 
L 430.712199 170.399217 
z
" style="fill:#800080;opacity:0.4;"/>
   </g>
   <g id="matplotlib.axis_1">
    <g id="xtick_1">
     <g id="line2d_1">
      <defs>
       <path d="M 0 0 
L 0 3.5 
" id="md8f4a17ce8" style="stroke:#000000;stroke-width:0.8;"/>
      </defs>
      <g>
       <use style="stroke:#000000;stroke-width:0.8;" x="46.534091" xlink:href="#md8f4a17ce8" y="170.399217"/>
      </g>
     </g>
     <g id="text_1">
      <!-- 0.0 -->
      <defs>
       <path d="M 31.78125 66.40625 
Q 24.171875 66.40625 20.328125 58.90625 
Q 16.5 51.421875 16.5 36.375 
Q 16.5 21.390625 20.328125 13.890625 
Q 24.171875 6.390625 31.78125 6.390625 
Q 39.453125 6.390625 43.28125 13.890625 
Q 47.125 21.390625 47.125 36.375 
Q 47.125 51.421875 43.28125 58.90625 
Q 39.453125 66.40625 31.78125 66.40625 
z
M 31.78125 74.21875 
Q 44.046875 74.21875 50.515625 64.515625 
Q 56.984375 54.828125 56.984375 36.375 
Q 56.984375 17.96875 50.515625 8.265625 
Q 44.046875 -1.421875 31.78125 -1.421875 
Q 19.53125 -1.421875 13.0625 8.265625 
Q 6.59375 17.96875 6.59375 36.375 
Q 6.59375 54.828125 13.0625 64.515625 
Q 19.53125 74.21875 31.78125 74.21875 
z
" id="DejaVuSans-48"/>
       <path d="M 10.6875 12.40625 
L 21 12.40625 
L 21 0 
L 10.6875 0 
z
" id="DejaVuSans-46"/>
      </defs>
      <g transform="translate(38.582528 184.997655)scale(0.1 -0.1)">
       <use xlink:href="#DejaVuSans-48"/>
       <use x="63.623047" xlink:href="#DejaVuSans-46"/>
       <use x="95.410156" xlink:href="#DejaVuSans-48"/>
      </g>
     </g>
    </g>
    <g id="xtick_2">
     <g id="line2d_2">
      <g>
       <use style="stroke:#000000;stroke-width:0.8;" x="98.825" xlink:href="#md8f4a17ce8" y="170.399217"/>
      </g>
     </g>
     <g id="text_2">
      <!-- 0.2 -->
      <defs>
       <path d="M 19.1875 8.296875 
L 53.609375 8.296875 
L 53.609375 0 
L 7.328125 0 
L 7.328125 8.296875 
Q 12.9375 14.109375 22.625 23.890625 
Q 32.328125 33.6875 34.8125 36.53125 
Q 39.546875 41.84375 41.421875 45.53125 
Q 43.3125 49.21875 43.3125 52.78125 
Q 43.3125 58.59375 39.234375 62.25 
Q 35.15625 65.921875 28.609375 65.921875 
Q 23.96875 65.921875 18.8125 64.3125 
Q 13.671875 62.703125 7.8125 59.421875 
L 7.8125 69.390625 
Q 13.765625 71.78125 18.9375 73 
Q 24.125 74.21875 28.421875 74.21875 
Q 39.75 74.21875 46.484375 68.546875 
Q 53.21875 62.890625 53.21875 53.421875 
Q 53.21875 48.921875 51.53125 44.890625 
Q 49.859375 40.875 45.40625 35.40625 
Q 44.1875 33.984375 37.640625 27.21875 
Q 31.109375 20.453125 19.1875 8.296875 
z
" id="DejaVuSans-50"/>
      </defs>
      <g transform="translate(90.873438 184.997655)scale(0.1 -0.1)">
       <use xlink:href="#DejaVuSans-48"/>
       <use x="63.623047" xlink:href="#DejaVuSans-46"/>
       <use x="95.410156" xlink:href="#DejaVuSans-50"/>
      </g>
     </g>
    </g>
    <g id="xtick_3">
     <g id="line2d_3">
      <g>
       <use style="stroke:#000000;stroke-width:0.8;" x="151.115909" xlink:href="#md8f4a17ce8" y="170.399217"/>
      </g>
     </g>
     <g id="text_3">
      <!-- 0.4 -->
      <defs>
       <path d="M 37.796875 64.3125 
L 12.890625 25.390625 
L 37.796875 25.390625 
z
M 35.203125 72.90625 
L 47.609375 72.90625 
L 47.609375 25.390625 
L 58.015625 25.390625 
L 58.015625 17.1875 
L 47.609375 17.1875 
L 47.609375 0 
L 37.796875 0 
L 37.796875 17.1875 
L 4.890625 17.1875 
L 4.890625 26.703125 
z
" id="DejaVuSans-52"/>
      </defs>
      <g transform="translate(143.164347 184.997655)scale(0.1 -0.1)">
       <use xlink:href="#DejaVuSans-48"/>
       <use x="63.623047" xlink:href="#DejaVuSans-46"/>
       <use x="95.410156" xlink:href="#DejaVuSans-52"/>
      </g>
     </g>
    </g>
    <g id="xtick_4">
     <g id="line2d_4">
      <g>
       <use style="stroke:#000000;stroke-width:0.8;" x="203.406818" xlink:href="#md8f4a17ce8" y="170.399217"/>
      </g>
     </g>
     <g id="text_4">
      <!-- 0.6 -->
      <defs>
       <path d="M 33.015625 40.375 
Q 26.375 40.375 22.484375 35.828125 
Q 18.609375 31.296875 18.609375 23.390625 
Q 18.609375 15.53125 22.484375 10.953125 
Q 26.375 6.390625 33.015625 6.390625 
Q 39.65625 6.390625 43.53125 10.953125 
Q 47.40625 15.53125 47.40625 23.390625 
Q 47.40625 31.296875 43.53125 35.828125 
Q 39.65625 40.375 33.015625 40.375 
z
M 52.59375 71.296875 
L 52.59375 62.3125 
Q 48.875 64.0625 45.09375 64.984375 
Q 41.3125 65.921875 37.59375 65.921875 
Q 27.828125 65.921875 22.671875 59.328125 
Q 17.53125 52.734375 16.796875 39.40625 
Q 19.671875 43.65625 24.015625 45.921875 
Q 28.375 48.1875 33.59375 48.1875 
Q 44.578125 48.1875 50.953125 41.515625 
Q 57.328125 34.859375 57.328125 23.390625 
Q 57.328125 12.15625 50.6875 5.359375 
Q 44.046875 -1.421875 33.015625 -1.421875 
Q 20.359375 -1.421875 13.671875 8.265625 
Q 6.984375 17.96875 6.984375 36.375 
Q 6.984375 53.65625 15.1875 63.9375 
Q 23.390625 74.21875 37.203125 74.21875 
Q 40.921875 74.21875 44.703125 73.484375 
Q 48.484375 72.75 52.59375 71.296875 
z
" id="DejaVuSans-54"/>
      </defs>
      <g transform="translate(195.455256 184.997655)scale(0.1 -0.1)">
       <use xlink:href="#DejaVuSans-48"/>
       <use x="63.623047" xlink:href="#DejaVuSans-46"/>
       <use x="95.410156" xlink:href="#DejaVuSans-54"/>
      </g>
     </g>
    </g>
    <g id="xtick_5">
     <g id="line2d_5">
      <g>
       <use style="stroke:#000000;stroke-width:0.8;" x="255.697727" xlink:href="#md8f4a17ce8" y="170.399217"/>
      </g>
     </g>
     <g id="text_5">
      <!-- 0.8 -->
      <defs>
       <path d="M 31.78125 34.625 
Q 24.75 34.625 20.71875 30.859375 
Q 16.703125 27.09375 16.703125 20.515625 
Q 16.703125 13.921875 20.71875 10.15625 
Q 24.75 6.390625 31.78125 6.390625 
Q 38.8125 6.390625 42.859375 10.171875 
Q 46.921875 13.96875 46.921875 20.515625 
Q 46.921875 27.09375 42.890625 30.859375 
Q 38.875 34.625 31.78125 34.625 
z
M 21.921875 38.8125 
Q 15.578125 40.375 12.03125 44.71875 
Q 8.5 49.078125 8.5 55.328125 
Q 8.5 64.0625 14.71875 69.140625 
Q 20.953125 74.21875 31.78125 74.21875 
Q 42.671875 74.21875 48.875 69.140625 
Q 55.078125 64.0625 55.078125 55.328125 
Q 55.078125 49.078125 51.53125 44.71875 
Q 48 40.375 41.703125 38.8125 
Q 48.828125 37.15625 52.796875 32.3125 
Q 56.78125 27.484375 56.78125 20.515625 
Q 56.78125 9.90625 50.3125 4.234375 
Q 43.84375 -1.421875 31.78125 -1.421875 
Q 19.734375 -1.421875 13.25 4.234375 
Q 6.78125 9.90625 6.78125 20.515625 
Q 6.78125 27.484375 10.78125 32.3125 
Q 14.796875 37.15625 21.921875 38.8125 
z
M 18.3125 54.390625 
Q 18.3125 48.734375 21.84375 45.5625 
Q 25.390625 42.390625 31.78125 42.390625 
Q 38.140625 42.390625 41.71875 45.5625 
Q 45.3125 48.734375 45.3125 54.390625 
Q 45.3125 60.0625 41.71875 63.234375 
Q 38.140625 66.40625 31.78125 66.40625 
Q 25.390625 66.40625 21.84375 63.234375 
Q 18.3125 60.0625 18.3125 54.390625 
z
" id="DejaVuSans-56"/>
      </defs>
      <g transform="translate(247.746165 184.997655)scale(0.1 -0.1)">
       <use xlink:href="#DejaVuSans-48"/>
       <use x="63.623047" xlink:href="#DejaVuSans-46"/>
       <use x="95.410156" xlink:href="#DejaVuSans-56"/>
      </g>
     </g>
    </g>
    <g id="xtick_6">
     <g id="line2d_6">
      <g>
       <use style="stroke:#000000;stroke-width:0.8;" x="307.988636" xlink:href="#md8f4a17ce8" y="170.399217"/>
      </g>
     </g>
     <g id="text_6">
      <!-- 1.0 -->
      <defs>
       <path d="M 12.40625 8.296875 
L 28.515625 8.296875 
L 28.515625 63.921875 
L 10.984375 60.40625 
L 10.984375 69.390625 
L 28.421875 72.90625 
L 38.28125 72.90625 
L 38.28125 8.296875 
L 54.390625 8.296875 
L 54.390625 0 
L 12.40625 0 
z
" id="DejaVuSans-49"/>
      </defs>
      <g transform="translate(300.037074 184.997655)scale(0.1 -0.1)">
       <use xlink:href="#DejaVuSans-49"/>
       <use x="63.623047" xlink:href="#DejaVuSans-46"/>
       <use x="95.410156" xlink:href="#DejaVuSans-48"/>
      </g>
     </g>
    </g>
    <g id="xtick_7">
     <g id="line2d_7">
      <g>
       <use style="stroke:#000000;stroke-width:0.8;" x="360.279545" xlink:href="#md8f4a17ce8" y="170.399217"/>
      </g>
     </g>
     <g id="text_7">
      <!-- 1.2 -->
      <g transform="translate(352.327983 184.997655)scale(0.1 -0.1)">
       <use xlink:href="#DejaVuSans-49"/>
       <use x="63.623047" xlink:href="#DejaVuSans-46"/>
       <use x="95.410156" xlink:href="#DejaVuSans-50"/>
      </g>
     </g>
    </g>
    <g id="xtick_8">
     <g id="line2d_8">
      <g>
       <use style="stroke:#000000;stroke-width:0.8;" x="412.570455" xlink:href="#md8f4a17ce8" y="170.399217"/>
      </g>
     </g>
     <g id="text_8">
      <!-- 1.4 -->
      <g transform="translate(404.618892 184.997655)scale(0.1 -0.1)">
       <use xlink:href="#DejaVuSans-49"/>
       <use x="63.623047" xlink:href="#DejaVuSans-46"/>
       <use x="95.410156" xlink:href="#DejaVuSans-52"/>
      </g>
     </g>
    </g>
    <g id="text_9">
     <!-- Entopy -->
     <defs>
      <path d="M 9.8125 72.90625 
L 55.90625 72.90625 
L 55.90625 64.59375 
L 19.671875 64.59375 
L 19.671875 43.015625 
L 54.390625 43.015625 
L 54.390625 34.71875 
L 19.671875 34.71875 
L 19.671875 8.296875 
L 56.78125 8.296875 
L 56.78125 0 
L 9.8125 0 
z
" id="DejaVuSans-69"/>
      <path d="M 54.890625 33.015625 
L 54.890625 0 
L 45.90625 0 
L 45.90625 32.71875 
Q 45.90625 40.484375 42.875 44.328125 
Q 39.84375 48.1875 33.796875 48.1875 
Q 26.515625 48.1875 22.3125 43.546875 
Q 18.109375 38.921875 18.109375 30.90625 
L 18.109375 0 
L 9.078125 0 
L 9.078125 54.6875 
L 18.109375 54.6875 
L 18.109375 46.1875 
Q 21.34375 51.125 25.703125 53.5625 
Q 30.078125 56 35.796875 56 
Q 45.21875 56 50.046875 50.171875 
Q 54.890625 44.34375 54.890625 33.015625 
z
" id="DejaVuSans-110"/>
      <path d="M 18.3125 70.21875 
L 18.3125 54.6875 
L 36.8125 54.6875 
L 36.8125 47.703125 
L 18.3125 47.703125 
L 18.3125 18.015625 
Q 18.3125 11.328125 20.140625 9.421875 
Q 21.96875 7.515625 27.59375 7.515625 
L 36.8125 7.515625 
L 36.8125 0 
L 27.59375 0 
Q 17.1875 0 13.234375 3.875 
Q 9.28125 7.765625 9.28125 18.015625 
L 9.28125 47.703125 
L 2.6875 47.703125 
L 2.6875 54.6875 
L 9.28125 54.6875 
L 9.28125 70.21875 
z
" id="DejaVuSans-116"/>
      <path d="M 30.609375 48.390625 
Q 23.390625 48.390625 19.1875 42.75 
Q 14.984375 37.109375 14.984375 27.296875 
Q 14.984375 17.484375 19.15625 11.84375 
Q 23.34375 6.203125 30.609375 6.203125 
Q 37.796875 6.203125 41.984375 11.859375 
Q 46.1875 17.53125 46.1875 27.296875 
Q 46.1875 37.015625 41.984375 42.703125 
Q 37.796875 48.390625 30.609375 48.390625 
z
M 30.609375 56 
Q 42.328125 56 49.015625 48.375 
Q 55.71875 40.765625 55.71875 27.296875 
Q 55.71875 13.875 49.015625 6.21875 
Q 42.328125 -1.421875 30.609375 -1.421875 
Q 18.84375 -1.421875 12.171875 6.21875 
Q 5.515625 13.875 5.515625 27.296875 
Q 5.515625 40.765625 12.171875 48.375 
Q 18.84375 56 30.609375 56 
z
" id="DejaVuSans-111"/>
      <path d="M 18.109375 8.203125 
L 18.109375 -20.796875 
L 9.078125 -20.796875 
L 9.078125 54.6875 
L 18.109375 54.6875 
L 18.109375 46.390625 
Q 20.953125 51.265625 25.265625 53.625 
Q 29.59375 56 35.59375 56 
Q 45.5625 56 51.78125 48.09375 
Q 58.015625 40.1875 58.015625 27.296875 
Q 58.015625 14.40625 51.78125 6.484375 
Q 45.5625 -1.421875 35.59375 -1.421875 
Q 29.59375 -1.421875 25.265625 0.953125 
Q 20.953125 3.328125 18.109375 8.203125 
z
M 48.6875 27.296875 
Q 48.6875 37.203125 44.609375 42.84375 
Q 40.53125 48.484375 33.40625 48.484375 
Q 26.265625 48.484375 22.1875 42.84375 
Q 18.109375 37.203125 18.109375 27.296875 
Q 18.109375 17.390625 22.1875 11.75 
Q 26.265625 6.109375 33.40625 6.109375 
Q 40.53125 6.109375 44.609375 11.75 
Q 48.6875 17.390625 48.6875 27.296875 
z
" id="DejaVuSans-112"/>
      <path d="M 32.171875 -5.078125 
Q 28.375 -14.84375 24.75 -17.8125 
Q 21.140625 -20.796875 15.09375 -20.796875 
L 7.90625 -20.796875 
L 7.90625 -13.28125 
L 13.1875 -13.28125 
Q 16.890625 -13.28125 18.9375 -11.515625 
Q 21 -9.765625 23.484375 -3.21875 
L 25.09375 0.875 
L 2.984375 54.6875 
L 12.5 54.6875 
L 29.59375 11.921875 
L 46.6875 54.6875 
L 56.203125 54.6875 
z
" id="DejaVuSans-121"/>
     </defs>
     <g transform="translate(225.14375 198.67578)scale(0.1 -0.1)">
      <use xlink:href="#DejaVuSans-69"/>
      <use x="63.183594" xlink:href="#DejaVuSans-110"/>
      <use x="126.5625" xlink:href="#DejaVuSans-116"/>
      <use x="165.771484" xlink:href="#DejaVuSans-111"/>
      <use x="226.953125" xlink:href="#DejaVuSans-112"/>
      <use x="290.429688" xlink:href="#DejaVuSans-121"/>
     </g>
    </g>
   </g>
   <g id="matplotlib.axis_2">
    <g id="ytick_1">
     <g id="line2d_9">
      <defs>
       <path d="M 0 0 
L -3.5 0 
" id="mf17c8abd9a" style="stroke:#000000;stroke-width:0.8;"/>
      </defs>
      <g>
       <use style="stroke:#000000;stroke-width:0.8;" x="26.925" xlink:href="#mf17c8abd9a" y="170.399217"/>
      </g>
     </g>
     <g id="text_10">
      <!-- 0 -->
      <g transform="translate(13.5625 174.198436)scale(0.1 -0.1)">
       <use xlink:href="#DejaVuSans-48"/>
      </g>
     </g>
    </g>
    <g id="ytick_2">
     <g id="line2d_10">
      <g>
       <use style="stroke:#000000;stroke-width:0.8;" x="26.925" xlink:href="#mf17c8abd9a" y="130.549218"/>
      </g>
     </g>
     <g id="text_11">
      <!-- 10 -->
      <g transform="translate(7.2 134.348437)scale(0.1 -0.1)">
       <use xlink:href="#DejaVuSans-49"/>
       <use x="63.623047" xlink:href="#DejaVuSans-48"/>
      </g>
     </g>
    </g>
    <g id="ytick_3">
     <g id="line2d_11">
      <g>
       <use style="stroke:#000000;stroke-width:0.8;" x="26.925" xlink:href="#mf17c8abd9a" y="90.699218"/>
      </g>
     </g>
     <g id="text_12">
      <!-- 20 -->
      <g transform="translate(7.2 94.498437)scale(0.1 -0.1)">
       <use xlink:href="#DejaVuSans-50"/>
       <use x="63.623047" xlink:href="#DejaVuSans-48"/>
      </g>
     </g>
    </g>
    <g id="ytick_4">
     <g id="line2d_12">
      <g>
       <use style="stroke:#000000;stroke-width:0.8;" x="26.925" xlink:href="#mf17c8abd9a" y="50.849218"/>
      </g>
     </g>
     <g id="text_13">
      <!-- 30 -->
      <defs>
       <path d="M 40.578125 39.3125 
Q 47.65625 37.796875 51.625 33 
Q 55.609375 28.21875 55.609375 21.1875 
Q 55.609375 10.40625 48.1875 4.484375 
Q 40.765625 -1.421875 27.09375 -1.421875 
Q 22.515625 -1.421875 17.65625 -0.515625 
Q 12.796875 0.390625 7.625 2.203125 
L 7.625 11.71875 
Q 11.71875 9.328125 16.59375 8.109375 
Q 21.484375 6.890625 26.8125 6.890625 
Q 36.078125 6.890625 40.9375 10.546875 
Q 45.796875 14.203125 45.796875 21.1875 
Q 45.796875 27.640625 41.28125 31.265625 
Q 36.765625 34.90625 28.71875 34.90625 
L 20.21875 34.90625 
L 20.21875 43.015625 
L 29.109375 43.015625 
Q 36.375 43.015625 40.234375 45.921875 
Q 44.09375 48.828125 44.09375 54.296875 
Q 44.09375 59.90625 40.109375 62.90625 
Q 36.140625 65.921875 28.71875 65.921875 
Q 24.65625 65.921875 20.015625 65.03125 
Q 15.375 64.15625 9.8125 62.3125 
L 9.8125 71.09375 
Q 15.4375 72.65625 20.34375 73.4375 
Q 25.25 74.21875 29.59375 74.21875 
Q 40.828125 74.21875 47.359375 69.109375 
Q 53.90625 64.015625 53.90625 55.328125 
Q 53.90625 49.265625 50.4375 45.09375 
Q 46.96875 40.921875 40.578125 39.3125 
z
" id="DejaVuSans-51"/>
      </defs>
      <g transform="translate(7.2 54.648437)scale(0.1 -0.1)">
       <use xlink:href="#DejaVuSans-51"/>
       <use x="63.623047" xlink:href="#DejaVuSans-48"/>
      </g>
     </g>
    </g>
    <g id="ytick_5">
     <g id="line2d_13">
      <g>
       <use style="stroke:#000000;stroke-width:0.8;" x="26.925" xlink:href="#mf17c8abd9a" y="10.999219"/>
      </g>
     </g>
     <g id="text_14">
      <!-- 40 -->
      <g transform="translate(7.2 14.798438)scale(0.1 -0.1)">
       <use xlink:href="#DejaVuSans-52"/>
       <use x="63.623047" xlink:href="#DejaVuSans-48"/>
      </g>
     </g>
    </g>
   </g>
   <g id="patch_150">
    <path d="M 26.925 170.399217 
L 26.925 7.213469 
" style="fill:none;stroke:#000000;stroke-linecap:square;stroke-linejoin:miter;stroke-width:0.8;"/>
   </g>
   <g id="patch_151">
    <path d="M 26.925 170.399217 
L 458.325 170.399217 
" style="fill:none;stroke:#000000;stroke-linecap:square;stroke-linejoin:miter;stroke-width:0.8;"/>
   </g>
   <g id="legend_1">
    <g id="patch_152">
     <path d="M 465.325 112.323531 
L 559.8625 112.323531 
Q 561.8625 112.323531 561.8625 110.323531 
L 561.8625 67.289156 
Q 561.8625 65.289156 559.8625 65.289156 
L 465.325 65.289156 
Q 463.325 65.289156 463.325 67.289156 
L 463.325 110.323531 
Q 463.325 112.323531 465.325 112.323531 
z
" style="fill:#ffffff;opacity:0.8;stroke:#cccccc;stroke-linejoin:miter;"/>
    </g>
    <g id="patch_153">
     <path d="M 467.325 76.887593 
L 487.325 76.887593 
L 487.325 69.887593 
L 467.325 69.887593 
z
" style="fill:#0000ff;opacity:0.4;"/>
    </g>
    <g id="text_15">
     <!-- softmax -->
     <defs>
      <path d="M 44.28125 53.078125 
L 44.28125 44.578125 
Q 40.484375 46.53125 36.375 47.5 
Q 32.28125 48.484375 27.875 48.484375 
Q 21.1875 48.484375 17.84375 46.4375 
Q 14.5 44.390625 14.5 40.28125 
Q 14.5 37.15625 16.890625 35.375 
Q 19.28125 33.59375 26.515625 31.984375 
L 29.59375 31.296875 
Q 39.15625 29.25 43.1875 25.515625 
Q 47.21875 21.78125 47.21875 15.09375 
Q 47.21875 7.46875 41.1875 3.015625 
Q 35.15625 -1.421875 24.609375 -1.421875 
Q 20.21875 -1.421875 15.453125 -0.5625 
Q 10.6875 0.296875 5.421875 2 
L 5.421875 11.28125 
Q 10.40625 8.6875 15.234375 7.390625 
Q 20.0625 6.109375 24.8125 6.109375 
Q 31.15625 6.109375 34.5625 8.28125 
Q 37.984375 10.453125 37.984375 14.40625 
Q 37.984375 18.0625 35.515625 20.015625 
Q 33.0625 21.96875 24.703125 23.78125 
L 21.578125 24.515625 
Q 13.234375 26.265625 9.515625 29.90625 
Q 5.8125 33.546875 5.8125 39.890625 
Q 5.8125 47.609375 11.28125 51.796875 
Q 16.75 56 26.8125 56 
Q 31.78125 56 36.171875 55.265625 
Q 40.578125 54.546875 44.28125 53.078125 
z
" id="DejaVuSans-115"/>
      <path d="M 37.109375 75.984375 
L 37.109375 68.5 
L 28.515625 68.5 
Q 23.6875 68.5 21.796875 66.546875 
Q 19.921875 64.59375 19.921875 59.515625 
L 19.921875 54.6875 
L 34.71875 54.6875 
L 34.71875 47.703125 
L 19.921875 47.703125 
L 19.921875 0 
L 10.890625 0 
L 10.890625 47.703125 
L 2.296875 47.703125 
L 2.296875 54.6875 
L 10.890625 54.6875 
L 10.890625 58.5 
Q 10.890625 67.625 15.140625 71.796875 
Q 19.390625 75.984375 28.609375 75.984375 
z
" id="DejaVuSans-102"/>
      <path d="M 52 44.1875 
Q 55.375 50.25 60.0625 53.125 
Q 64.75 56 71.09375 56 
Q 79.640625 56 84.28125 50.015625 
Q 88.921875 44.046875 88.921875 33.015625 
L 88.921875 0 
L 79.890625 0 
L 79.890625 32.71875 
Q 79.890625 40.578125 77.09375 44.375 
Q 74.3125 48.1875 68.609375 48.1875 
Q 61.625 48.1875 57.5625 43.546875 
Q 53.515625 38.921875 53.515625 30.90625 
L 53.515625 0 
L 44.484375 0 
L 44.484375 32.71875 
Q 44.484375 40.625 41.703125 44.40625 
Q 38.921875 48.1875 33.109375 48.1875 
Q 26.21875 48.1875 22.15625 43.53125 
Q 18.109375 38.875 18.109375 30.90625 
L 18.109375 0 
L 9.078125 0 
L 9.078125 54.6875 
L 18.109375 54.6875 
L 18.109375 46.1875 
Q 21.1875 51.21875 25.484375 53.609375 
Q 29.78125 56 35.6875 56 
Q 41.65625 56 45.828125 52.96875 
Q 50 49.953125 52 44.1875 
z
" id="DejaVuSans-109"/>
      <path d="M 34.28125 27.484375 
Q 23.390625 27.484375 19.1875 25 
Q 14.984375 22.515625 14.984375 16.5 
Q 14.984375 11.71875 18.140625 8.90625 
Q 21.296875 6.109375 26.703125 6.109375 
Q 34.1875 6.109375 38.703125 11.40625 
Q 43.21875 16.703125 43.21875 25.484375 
L 43.21875 27.484375 
z
M 52.203125 31.203125 
L 52.203125 0 
L 43.21875 0 
L 43.21875 8.296875 
Q 40.140625 3.328125 35.546875 0.953125 
Q 30.953125 -1.421875 24.3125 -1.421875 
Q 15.921875 -1.421875 10.953125 3.296875 
Q 6 8.015625 6 15.921875 
Q 6 25.140625 12.171875 29.828125 
Q 18.359375 34.515625 30.609375 34.515625 
L 43.21875 34.515625 
L 43.21875 35.40625 
Q 43.21875 41.609375 39.140625 45 
Q 35.0625 48.390625 27.6875 48.390625 
Q 23 48.390625 18.546875 47.265625 
Q 14.109375 46.140625 10.015625 43.890625 
L 10.015625 52.203125 
Q 14.9375 54.109375 19.578125 55.046875 
Q 24.21875 56 28.609375 56 
Q 40.484375 56 46.34375 49.84375 
Q 52.203125 43.703125 52.203125 31.203125 
z
" id="DejaVuSans-97"/>
      <path d="M 54.890625 54.6875 
L 35.109375 28.078125 
L 55.90625 0 
L 45.3125 0 
L 29.390625 21.484375 
L 13.484375 0 
L 2.875 0 
L 24.125 28.609375 
L 4.6875 54.6875 
L 15.28125 54.6875 
L 29.78125 35.203125 
L 44.28125 54.6875 
z
" id="DejaVuSans-120"/>
     </defs>
     <g transform="translate(495.325 76.887593)scale(0.1 -0.1)">
      <use xlink:href="#DejaVuSans-115"/>
      <use x="52.099609" xlink:href="#DejaVuSans-111"/>
      <use x="113.28125" xlink:href="#DejaVuSans-102"/>
      <use x="148.470703" xlink:href="#DejaVuSans-116"/>
      <use x="187.679688" xlink:href="#DejaVuSans-109"/>
      <use x="285.091797" xlink:href="#DejaVuSans-97"/>
      <use x="346.371094" xlink:href="#DejaVuSans-120"/>
     </g>
    </g>
    <g id="patch_154">
     <path d="M 467.325 91.565718 
L 487.325 91.565718 
L 487.325 84.565718 
L 467.325 84.565718 
z
" style="fill:#008000;opacity:0.4;"/>
    </g>
    <g id="text_16">
     <!-- softmax-ucb -->
     <defs>
      <path d="M 4.890625 31.390625 
L 31.203125 31.390625 
L 31.203125 23.390625 
L 4.890625 23.390625 
z
" id="DejaVuSans-45"/>
      <path d="M 8.5 21.578125 
L 8.5 54.6875 
L 17.484375 54.6875 
L 17.484375 21.921875 
Q 17.484375 14.15625 20.5 10.265625 
Q 23.53125 6.390625 29.59375 6.390625 
Q 36.859375 6.390625 41.078125 11.03125 
Q 45.3125 15.671875 45.3125 23.6875 
L 45.3125 54.6875 
L 54.296875 54.6875 
L 54.296875 0 
L 45.3125 0 
L 45.3125 8.40625 
Q 42.046875 3.421875 37.71875 1 
Q 33.40625 -1.421875 27.6875 -1.421875 
Q 18.265625 -1.421875 13.375 4.4375 
Q 8.5 10.296875 8.5 21.578125 
z
M 31.109375 56 
z
" id="DejaVuSans-117"/>
      <path d="M 48.78125 52.59375 
L 48.78125 44.1875 
Q 44.96875 46.296875 41.140625 47.34375 
Q 37.3125 48.390625 33.40625 48.390625 
Q 24.65625 48.390625 19.8125 42.84375 
Q 14.984375 37.3125 14.984375 27.296875 
Q 14.984375 17.28125 19.8125 11.734375 
Q 24.65625 6.203125 33.40625 6.203125 
Q 37.3125 6.203125 41.140625 7.25 
Q 44.96875 8.296875 48.78125 10.40625 
L 48.78125 2.09375 
Q 45.015625 0.34375 40.984375 -0.53125 
Q 36.96875 -1.421875 32.421875 -1.421875 
Q 20.0625 -1.421875 12.78125 6.34375 
Q 5.515625 14.109375 5.515625 27.296875 
Q 5.515625 40.671875 12.859375 48.328125 
Q 20.21875 56 33.015625 56 
Q 37.15625 56 41.109375 55.140625 
Q 45.0625 54.296875 48.78125 52.59375 
z
" id="DejaVuSans-99"/>
      <path d="M 48.6875 27.296875 
Q 48.6875 37.203125 44.609375 42.84375 
Q 40.53125 48.484375 33.40625 48.484375 
Q 26.265625 48.484375 22.1875 42.84375 
Q 18.109375 37.203125 18.109375 27.296875 
Q 18.109375 17.390625 22.1875 11.75 
Q 26.265625 6.109375 33.40625 6.109375 
Q 40.53125 6.109375 44.609375 11.75 
Q 48.6875 17.390625 48.6875 27.296875 
z
M 18.109375 46.390625 
Q 20.953125 51.265625 25.265625 53.625 
Q 29.59375 56 35.59375 56 
Q 45.5625 56 51.78125 48.09375 
Q 58.015625 40.1875 58.015625 27.296875 
Q 58.015625 14.40625 51.78125 6.484375 
Q 45.5625 -1.421875 35.59375 -1.421875 
Q 29.59375 -1.421875 25.265625 0.953125 
Q 20.953125 3.328125 18.109375 8.203125 
L 18.109375 0 
L 9.078125 0 
L 9.078125 75.984375 
L 18.109375 75.984375 
z
" id="DejaVuSans-98"/>
     </defs>
     <g transform="translate(495.325 91.565718)scale(0.1 -0.1)">
      <use xlink:href="#DejaVuSans-115"/>
      <use x="52.099609" xlink:href="#DejaVuSans-111"/>
      <use x="113.28125" xlink:href="#DejaVuSans-102"/>
      <use x="148.470703" xlink:href="#DejaVuSans-116"/>
      <use x="187.679688" xlink:href="#DejaVuSans-109"/>
      <use x="285.091797" xlink:href="#DejaVuSans-97"/>
      <use x="346.371094" xlink:href="#DejaVuSans-120"/>
      <use x="405.550781" xlink:href="#DejaVuSans-45"/>
      <use x="441.634766" xlink:href="#DejaVuSans-117"/>
      <use x="505.013672" xlink:href="#DejaVuSans-99"/>
      <use x="559.994141" xlink:href="#DejaVuSans-98"/>
     </g>
    </g>
    <g id="patch_155">
     <path d="M 467.325 106.243843 
L 487.325 106.243843 
L 487.325 99.243843 
L 467.325 99.243843 
z
" style="fill:#800080;opacity:0.4;"/>
    </g>
    <g id="text_17">
     <!-- softmax-nov -->
     <defs>
      <path d="M 2.984375 54.6875 
L 12.5 54.6875 
L 29.59375 8.796875 
L 46.6875 54.6875 
L 56.203125 54.6875 
L 35.6875 0 
L 23.484375 0 
z
" id="DejaVuSans-118"/>
     </defs>
     <g transform="translate(495.325 106.243843)scale(0.1 -0.1)">
      <use xlink:href="#DejaVuSans-115"/>
      <use x="52.099609" xlink:href="#DejaVuSans-111"/>
      <use x="113.28125" xlink:href="#DejaVuSans-102"/>
      <use x="148.470703" xlink:href="#DejaVuSans-116"/>
      <use x="187.679688" xlink:href="#DejaVuSans-109"/>
      <use x="285.091797" xlink:href="#DejaVuSans-97"/>
      <use x="346.371094" xlink:href="#DejaVuSans-120"/>
      <use x="405.550781" xlink:href="#DejaVuSans-45"/>
      <use x="441.634766" xlink:href="#DejaVuSans-110"/>
      <use x="505.013672" xlink:href="#DejaVuSans-111"/>
      <use x="566.195312" xlink:href="#DejaVuSans-118"/>
     </g>
    </g>
   </g>
  </g>
 </g>
 <defs>
  <clipPath id="pbe8ac8a528">
   <rect height="163.185749" width="431.4" x="26.925" y="7.213469"/>
  </clipPath>
 </defs>
</svg>
